<?xml version="1.0" encoding="UTF-8"?>
<svg width="120px" height="139px" viewBox="0 0 120 139" version="1.1" xmlns="http://www.w3.org/2000/svg" xmlns:xlink="http://www.w3.org/1999/xlink">
    <title>DBMartha</title>
    <g id="Page-1" stroke="none" stroke-width="1" fill="none" fill-rule="evenodd">
        <g id="DBMartha">
            <g id="Martha">
                <path d="M21,139 L27.5,123.326531 C30.8479249,118.428571 34.8479249,115.979592 39.5,115.979592 C46.4781126,115.979592 46.7218178,123.326531 55,123.326531 C60.6478786,123.326531 66.6478786,120.55102 73,115 C74.0004242,116.186207 75.6670908,117.852874 78,120 C76.3333333,125.387755 76.3333333,131.721088 78,139" id="Path-2" fill="#DD9A85" fill-rule="nonzero"></path>
                <g id="happy-laugh-woman" transform="translate(14.000000, 19.000000)" fill-rule="nonzero">
                    <path d="M20.26,96.5853659 C21.61,95.502439 23.06,94.3219512 24.46,93.1707317 C24.49,93.1512195 24.52,93.1219512 24.55,93.102439 C24.86,92.7121951 25.07,92.4487805 25.28,92.195122 C26.32,90.9073171 27.18,89.8439024 27.87,88.4292683 C23.49,86.1365854 19.41,82.7121951 15.92,78.0780488 C13.46,78.6829268 1.87,83.0829268 1.97,79.0634146 C0.54,70.2536585 -0.29,61.404878 0.09,52.4878049 C0.53,42.2731707 2.87,26.5853659 8.66,17.6878049 C12.8,11.3463415 17.96,6.82926829 24.02,3.94146341 C30.04,1.07317073 36.94,-0.165853659 44.6,0.0195121951 C51.18,0.175609756 57.56,1.76585366 63.23,4.94634146 C68.53,7.91219512 73.21,12.2536585 76.87,18.0780488 C78.22,20.2341463 79.38,22.4878049 80.36,24.8585366 C83.9,33.395122 84.23,42.6829268 84.34,51.804878 C84.38,55.3463415 84.11,77.7560976 81.97,79.2195122 C80.16,80.4682927 72.72,73.8853659 69,72.5 C64.95,78.9195122 63.1,85.1902439 57.24,88.2146341 C57.77,89.697561 58.5,90.8292683 59.41,92.2243902 L59.8,92.8292683 C64.0345436,94.696544 64.0437613,96.7793731 64,99.5 C63.9189222,104.540581 60.7009176,111.231845 63,119 C59.93,109.117073 69.11,101.502439 59.24,96.7902439 C57.75,98.604878 56.01,100.126829 54.11,101.336585 C50.48,103.658537 46.24,104.858537 42.01,104.868293 C37.77,104.878049 33.54,103.687805 29.93,101.239024 C29.24,100.770732 28.57,100.253659 27.92,99.6878049 C27.05,98.9756098 26.23,98.1853659 25.45,97.3365854 C24.47,98.1365854 23.58,98.8487805 22.74,99.5317073 C14.56,106.126829 10.51,109.395122 7.46,119.892683 L3.42,119.882927 C6.77,107.473171 11.14,103.95122 20.26,96.5853659 Z" id="Shape" fill="#000000"></path>
                    <path d="M53.72,83.5219512 C53.78,83.4926829 53.84,83.4731707 53.89,83.4536585 C60.54,80.204878 66.41,74.2341463 70.1,66.0097561 C71.4,63.1121951 71.99,60.4878049 72.25,57.8634146 C73.03,49.7853659 72.31,38.8780488 72.31,30.497561 C65.52,31.5219512 62.68,27.0829268 61.43,20.4682927 C47.55,32.8195122 31.38,35.5414634 13.26,30.0780488 C13.26,38.3707317 12.58,48.7804878 13.25,56.8 C13.45,59.2195122 13.94,61.6780488 15,64.3902439 C22.86,84.4487805 38.95,89.7560976 52.37,84.1365854 C52.81,83.9414634 53.26,83.7365854 53.72,83.5219512 Z" id="Path" fill="#FFE3C6"></path>
                    <path d="M28.54,46.4487805 C30.82,46.4487805 32.67,48.2536585 32.67,50.4780488 C32.67,52.702439 30.82,54.5073171 28.54,54.5073171 C26.26,54.5073171 24.41,52.702439 24.41,50.4780488 C24.41,48.2536585 26.26,46.4487805 28.54,46.4487805 L28.54,46.4487805 Z" id="Path" fill="#000000"></path>
                    <path d="M55.8,46.4487805 C58.08,46.4487805 59.93,48.2536585 59.93,50.4780488 C59.93,52.702439 58.08,54.5073171 55.8,54.5073171 C53.52,54.5073171 51.67,52.702439 51.67,50.4780488 C51.67,48.2536585 53.52,46.4487805 55.8,46.4487805 L55.8,46.4487805 Z" id="Path" fill="#000000"></path>
                    <path d="M54.41,66.6243902 C56.74,66.5365854 57.34,67.7365854 56.56,69.395122 C49.05,81.804878 27.16,75.2878049 27.46,69.1902439 C27.52,68.0585366 28.01,66.7219512 29.32,66.6243902 C37.5,72.6829268 46,72.6829268 54.41,66.6243902 Z" id="Path" fill="#000000"></path>
                    <path d="M65.19,44.9365854 C65.78,45.7073171 65.62,46.8 64.83,47.3756098 C64.04,47.9512195 62.92,47.795122 62.33,47.0243902 C60.9,45.1609756 59.37,44.1756098 57.76,43.804878 C56.12,43.4243902 54.33,43.6682927 52.47,44.2731707 C51.53,44.5756098 50.52,44.0878049 50.21,43.1707317 C49.9,42.2536585 50.4,41.2682927 51.34,40.9658537 C53.79,40.1560976 56.22,39.8536585 58.57,40.4 C60.98,40.9658537 63.21,42.3609756 65.19,44.9365854 L65.19,44.9365854 Z" id="Path" fill="#000000"></path>
                    <path d="M22.01,47.0243902 C21.42,47.795122 20.3,47.9512195 19.51,47.3756098 C18.72,46.8 18.56,45.7073171 19.15,44.9365854 C21.13,42.3512195 23.37,40.9560976 25.76,40.4097561 C28.11,39.8634146 30.54,40.1658537 32.99,40.9756098 C33.93,41.2780488 34.43,42.2731707 34.12,43.1804878 C33.81,44.097561 32.79,44.5853659 31.86,44.2829268 C30.01,43.6682927 28.22,43.4341463 26.57,43.8146341 C24.97,44.1756098 23.43,45.1707317 22.01,47.0243902 L22.01,47.0243902 Z" id="Path" fill="#000000"></path>
                    <path d="M31.43,90.0195122 C30.6,91.7560976 29.58,93.0146341 28.35,94.5365854 C29.06,95.4341463 29.83,96.2439024 30.66,96.9560976 C30.81,97.0731707 30.96,97.1902439 31.11,97.3073171 C34.32,99.7268293 38.07,100.97561 41.83,101.02439 C45.58,101.082927 49.35,99.9414634 52.58,97.5902439 C53.85,96.6634146 55.04,95.5512195 56.11,94.2634146 L56.1,94.2439024 C55.1,92.702439 54.27,91.4341463 53.65,89.804878 C46.45,92.5463415 38.65,92.7121951 31.43,90.0195122 L31.43,90.0195122 L31.43,90.0195122 Z" id="Path" fill="#000000"></path>
                </g>
                <g id="digital" fill="#000000" fill-rule="nonzero">
                    <path d="M99,62.9823529 C99.17,62.6210588 98.88,60.3068235 99,59.5647059 L110.36,59.7892941 C110.43,59.6623529 110.49,59.5451765 110.57,59.428 C110.71,59.2034118 110.89,58.9983529 111.07,58.8225882 C111.43,58.4710588 111.84,58.2074118 112.31,58.0121176 C112.76,57.8363529 113.25,57.7289412 113.77,57.7289412 C114.27,57.7289412 114.75,57.8265882 115.2,58.0023529 L115.23,58.0121176 C115.7,58.1976471 116.11,58.4808235 116.47,58.8225882 C116.82,59.1643529 117.1,59.5744706 117.3,60.0334118 C117.48,60.4728235 117.59,60.9512941 117.59,61.4590588 C117.59,61.9570588 117.48,62.4355294 117.3,62.8847059 C117.11,63.3436471 116.82,63.7537647 116.47,64.0955294 C116.12,64.4372941 115.7,64.7107059 115.23,64.906 C114.78,65.0817647 114.29,65.1891765 113.77,65.1891765 C113.27,65.1891765 112.79,65.0915294 112.34,64.9157647 L112.31,64.906 C111.84,64.7204706 111.43,64.4372941 111.07,64.0955294 C110.89,63.9197647 110.72,63.7244706 110.58,63.4998824 L110.56,63.4705882 C110.49,63.3534118 110.42,63.2362353 110.36,63.1092941 L99,62.9823529 Z M97.83,54.0281176 C97.5,52.9735294 97.04,50.3761176 97,50.2882353 L108.9,50.7081176 L108.9,39.8692941 C108.8,39.8107059 108.71,39.7521176 108.61,39.6935294 C108.42,39.5665882 108.24,39.4201176 108.08,39.2638824 C107.73,38.9221176 107.45,38.512 107.25,38.0530588 C107.07,37.6136471 106.96,37.1351765 106.96,36.6274118 C106.96,36.1294118 107.07,35.6411765 107.25,35.2017647 C107.44,34.7428235 107.73,34.3424706 108.08,33.9909412 C108.43,33.6491765 108.85,33.3757647 109.32,33.1804706 C109.77,33.0047059 110.26,32.8972941 110.78,32.8972941 C111.29,32.8972941 111.78,33.0047059 112.24,33.1804706 C112.71,33.366 113.13,33.6491765 113.48,33.9909412 C113.83,34.3327059 114.11,34.7428235 114.31,35.2017647 C114.49,35.6411765 114.6,36.1196471 114.6,36.6274118 C114.6,37.1156471 114.5,37.5843529 114.32,38.0237647 L114.31,38.0530588 C114.12,38.512 113.83,38.9123529 113.48,39.2638824 C113.27,39.4689412 113.02,39.6544706 112.76,39.8204706 C112.62,39.9083529 112.45,39.9864706 112.3,40.0548235 L112.3,52.3681176 C112.3,52.8270588 112.11,53.2371765 111.8,53.5398824 C111.48,53.8425882 111.06,54.0281176 110.58,54.0281176 L97.83,54.0281176 Z M100.26,46.0112941 L95.92,46.0112941 C96.04,45.3961176 96.1,44.7711765 96.13,44.156 C96.15,43.658 96.15,43.1697647 96.12,42.6912941 L98.56,42.6912941 L98.56,37.7894118 C98.43,37.7210588 98.3,37.6624706 98.18,37.5745882 C97.95,37.4378824 97.74,37.2621176 97.54,37.0668235 L97.54,37.0668235 C97.19,36.7250588 96.91,36.3149412 96.71,35.856 C96.53,35.4165882 96.42,34.9381176 96.42,34.4401176 C96.42,33.9421176 96.53,33.4636471 96.71,33.0144706 C96.9,32.5750588 97.17,32.1747059 97.51,31.8329412 L97.54,31.8036471 C97.89,31.4618824 98.31,31.1884706 98.78,30.9931765 C99.23,30.8174118 99.72,30.71 100.24,30.71 C100.76,30.71 101.25,30.8174118 101.7,30.9931765 C102.15,31.1787059 102.56,31.4423529 102.91,31.7841176 L102.94,31.8036471 C103.29,32.1454118 103.56,32.536 103.76,32.9851765 L103.77,33.0144706 C103.95,33.4538824 104.06,33.9323529 104.06,34.4401176 C104.06,34.9381176 103.95,35.4263529 103.77,35.8657647 C103.58,36.3051765 103.31,36.7152941 102.97,37.0472941 L102.94,37.0765882 C102.76,37.2523529 102.56,37.4183529 102.33,37.5648235 C102.21,37.6429412 102.1,37.7015294 101.97,37.7601176 L101.97,44.3512941 C101.97,44.8102353 101.78,45.2203529 101.47,45.5230588 C101.15,45.8257647 100.72,46.0112941 100.26,46.0112941 L100.26,46.0112941 L100.26,46.0112941 Z M29.91,17.6155294 C30.36,17.7912941 30.85,17.8987059 31.37,17.8987059 C31.89,17.8987059 32.38,17.7912941 32.83,17.6155294 C33.28,17.43 33.7,17.1663529 34.03,16.8245882 L34.06,16.8050588 C34.25,16.6195294 34.43,16.4047059 34.58,16.1703529 C34.66,16.0434118 34.73,15.9164706 34.8,15.7797647 L40.86,15.7797647 L40.86,20.8964706 C41.93,20.3398824 43.08,19.9395294 44.26,19.7051765 L44.26,14.1197647 C44.26,13.6608235 44.07,13.2507059 43.76,12.948 C43.45,12.6452941 43.03,12.4597647 42.56,12.4597647 L34.74,12.4597647 C34.68,12.3425882 34.62,12.2351765 34.54,12.118 C34.41,11.9227059 34.25,11.7371765 34.08,11.5614118 L34.05,11.5321176 C33.7,11.1903529 33.28,10.9169412 32.81,10.7216471 C32.36,10.5458824 31.87,10.4384706 31.35,10.4384706 C30.85,10.4384706 30.36,10.5361176 29.92,10.7118824 L29.89,10.7216471 C29.42,10.9071765 29.01,11.1903529 28.65,11.5321176 C28.3,11.8738824 28.02,12.284 27.82,12.7429412 C27.64,13.1823529 27.53,13.6608235 27.53,14.1685882 C27.53,14.6665882 27.64,15.1450588 27.82,15.5942353 C28.01,16.0531765 28.3,16.4632941 28.65,16.8050588 C29.03,17.1468235 29.44,17.4202353 29.91,17.6155294 L29.91,17.6155294 L29.91,17.6155294 Z M49.5,18.5529412 C50.63,18.8751765 51.96,17.8303529 53,18.5529412 L52.79,7.06964706 C52.91,7.00129412 53.04,6.94270588 53.16,6.86458824 C53.39,6.72788235 53.6,6.55211765 53.78,6.37635294 C54.13,6.02482353 54.41,5.62447059 54.61,5.16552941 C54.79,4.72611765 54.9,4.24764706 54.9,3.73988235 C54.9,3.25164706 54.8,2.78294118 54.62,2.34352941 L54.61,2.31423529 C54.42,1.85529412 54.13,1.45494118 53.78,1.10341176 C53.43,0.761647059 53.01,0.488235294 52.54,0.292941176 C52.09,0.117176471 51.6,0.00976470588 51.08,0.00976470588 C50.57,0.00976470588 50.08,0.117176471 49.62,0.292941176 C49.15,0.478470588 48.73,0.761647059 48.38,1.10341176 C48.03,1.44517647 47.75,1.85529412 47.55,2.31423529 C47.37,2.75364706 47.26,3.23211765 47.26,3.73988235 C47.26,4.22811765 47.36,4.69682353 47.54,5.13623529 L47.55,5.16552941 C47.74,5.62447059 48.03,6.02482353 48.38,6.37635294 C48.56,6.55211765 48.76,6.71811765 48.99,6.85482353 L49.01,6.86458824 C49.13,6.93294118 49.25,7.00129412 49.38,7.06964706 L49.5,18.5529412 Z M58.5,18.0647059 C58.96,17.6057647 61.33,18.3381176 62,18.0647059 L62.07,5.56588235 L73.17,5.56588235 C73.23,5.66352941 73.29,5.75141176 73.35,5.84905882 C73.48,6.03458824 73.63,6.21035294 73.79,6.36658824 C74.14,6.70835294 74.56,6.98176471 75.03,7.17705882 C75.48,7.35282353 75.97,7.46023529 76.49,7.46023529 C77,7.46023529 77.5,7.35282353 77.95,7.17705882 C78.42,6.99152941 78.84,6.70835294 79.19,6.36658824 C79.54,6.02482353 79.82,5.61470588 80.02,5.15576471 C80.2,4.71635294 80.31,4.23788235 80.31,3.73011765 C80.31,3.23211765 80.2,2.75364706 80.02,2.30447059 C79.83,1.84552941 79.54,1.43541176 79.19,1.09364706 C78.82,0.751882353 78.4,0.478470588 77.93,0.283176471 C77.49,0.107411765 77,0 76.49,0 C75.99,0 75.51,0.0976470588 75.06,0.273411765 L75.03,0.283176471 C74.56,0.468705882 74.15,0.751882353 73.79,1.09364706 C73.58,1.29870588 73.39,1.54282353 73.22,1.79670588 C73.13,1.93341176 73.05,2.09941176 72.98,2.24588235 L60.38,2.24588235 C59.91,2.24588235 59.49,2.43141176 59.18,2.73411765 C58.87,3.03682353 58.67,3.45670588 58.67,3.91564706 L58.5,18.0647059 Z M66.88,15.9555294 L66.88,18.5236471 C67.23,18.5431765 67.58,18.5724706 67.93,18.6310588 C68.74,18.7482353 69.53,18.9435294 70.28,19.2169412 L70.28,17.6350588 L75.3,17.6350588 C75.37,17.762 75.43,17.8889412 75.52,18.0061176 C75.66,18.2307059 75.84,18.4357647 76.04,18.6310588 L76.04,18.6310588 C76.39,18.9728235 76.81,19.2462353 77.28,19.4415294 C77.73,19.6172941 78.22,19.7247059 78.73,19.7247059 C79.24,19.7247059 79.73,19.6172941 80.19,19.4415294 C80.64,19.256 81.06,18.9923529 81.4,18.6603529 L81.43,18.6310588 C81.78,18.2892941 82.06,17.8791765 82.26,17.4202353 C82.44,16.9808235 82.55,16.5023529 82.55,15.9945882 C82.55,15.4868235 82.44,15.0083529 82.26,14.5689412 C82.07,14.1295294 81.8,13.7194118 81.45,13.3874118 L81.43,13.3581176 C81.08,13.0163529 80.68,12.7527059 80.22,12.5574118 L80.19,12.5476471 C79.74,12.3718824 79.25,12.2644706 78.73,12.2644706 C78.22,12.2644706 77.72,12.3718824 77.27,12.5476471 C76.82,12.7331765 76.41,12.9968235 76.06,13.3288235 L76.03,13.3581176 C75.85,13.5338824 75.68,13.7291765 75.53,13.9635294 C75.45,14.0807059 75.39,14.1881176 75.33,14.3150588 L68.58,14.3150588 C68.11,14.3150588 67.69,14.5005882 67.38,14.8032941 C67.07,15.0767059 66.88,15.4868235 66.88,15.9555294 L66.88,15.9555294 L66.88,15.9555294 Z M18.33,34.4498824 C18.33,34.9576471 18.22,35.4361176 18.04,35.8755294 C17.85,36.3149412 17.58,36.7152941 17.23,37.0472941 L17.21,37.0765882 C17.02,37.2621176 16.8,37.4378824 16.56,37.5843529 C16.43,37.6624706 16.3,37.7308235 16.16,37.7991765 L16.16,43.7165882 L18.5,43.9411765 C17.9466667,45.484 17.4466667,46.4604706 17,46.8705882 C16.5533333,47.2807059 15.71,47.3392941 14.47,47.0463529 C14,47.0463529 13.58,46.8608235 13.27,46.5581176 C12.96,46.2554118 12.77,45.8452941 12.77,45.3863529 L12.77,37.7503529 C12.65,37.6917647 12.54,37.6234118 12.42,37.5550588 C12.22,37.4281176 12.03,37.2718824 11.85,37.1058824 L11.82,37.0765882 C11.47,36.7348235 11.19,36.3247059 10.99,35.8657647 C10.81,35.4263529 10.7,34.9478824 10.7,34.4401176 C10.7,33.9518824 10.8,33.4831765 10.98,33.0437647 L11,33.0144706 C11.19,32.5555294 11.48,32.1551765 11.83,31.8036471 C12.18,31.4618824 12.6,31.1884706 13.07,30.9931765 C13.52,30.8174118 14.01,30.71 14.53,30.71 C15.04,30.71 15.53,30.8174118 15.99,30.9931765 C16.46,31.1787059 16.88,31.4618824 17.23,31.8036471 C17.56,32.1551765 17.84,32.5652941 18.04,33.0242353 C18.22,33.4636471 18.33,33.9421176 18.33,34.4498824 Z M7.24,52.0263529 L16.27,52.0263529 C16.12,52.3681176 15.98,52.7098824 15.86,53.0516471 C15.59,53.8132941 15.4,54.5749412 15.28,55.3365882 L7.24,55.3365882 C7.17,55.4635294 7.11,55.5807059 7.03,55.6978824 C6.89,55.9224706 6.71,56.1275294 6.53,56.3032941 C6.17,56.6548235 5.76,56.9184706 5.29,57.1137647 C4.84,57.2895294 4.35,57.3969412 3.83,57.3969412 C3.33,57.3969412 2.85,57.2992941 2.4,57.1235294 L2.36,57.1235294 C1.89,56.938 1.48,56.6548235 1.12,56.3130588 C0.77,55.9712941 0.49,55.5611765 0.29,55.1022353 C0.11,54.6628235 -7.36122274e-12,54.1843529 -7.36122274e-12,53.6765882 C-7.36122274e-12,53.1785882 0.11,52.7001176 0.29,52.2509412 C0.48,51.792 0.77,51.3818824 1.12,51.0401176 C1.47,50.6983529 1.89,50.4249412 2.36,50.2296471 C2.81,50.0538824 3.3,49.9464706 3.82,49.9464706 C4.32,49.9464706 4.8,50.0441176 5.25,50.2198824 L5.28,50.2296471 C5.75,50.4151765 6.16,50.6983529 6.52,51.0401176 C6.7,51.2158824 6.87,51.4111765 7.01,51.6357647 L7.03,51.6650588 C7.1,51.7822353 7.17,51.9091765 7.24,52.0263529 L7.24,52.0263529 L7.24,52.0263529 Z M14.5,61.0294118 C14.6519509,61.4945893 14.6617502,62.1021614 14.5,62.9823529 C14.432784,63.3481203 14.2661173,63.9991007 14,64.9352941 L5.7,64.4372941 L5.7,75.2761176 C5.8,75.3347059 5.89,75.3932941 5.99,75.4518824 C6.18,75.5788235 6.36,75.7252941 6.52,75.8815294 C6.87,76.2232941 7.15,76.6334118 7.35,77.0923529 C7.53,77.5317647 7.64,78.0102353 7.64,78.518 C7.64,79.016 7.53,79.5042353 7.35,79.9436471 C7.16,80.4025882 6.87,80.8029412 6.52,81.1544706 C6.17,81.4962353 5.75,81.7696471 5.28,81.9649412 C4.83,82.1407059 4.34,82.2481176 3.82,82.2481176 C3.31,82.2481176 2.82,82.1407059 2.36,81.9649412 C1.89,81.7794118 1.47,81.4962353 1.12,81.1544706 C0.77,80.7931765 0.49,80.3732941 0.29,79.9241176 C0.11,79.4847059 -7.38964445e-12,79.0062353 -7.38964445e-12,78.4984706 C-7.38964445e-12,78.0102353 0.1,77.5415294 0.28,77.1021176 L0.29,77.0728235 C0.48,76.6138824 0.77,76.2135294 1.12,75.862 C1.33,75.6569412 1.58,75.4714118 1.84,75.3054118 C1.98,75.2175294 2.15,75.1394118 2.3,75.0710588 L2.3,62.7675294 C2.3,62.3085882 2.49,61.8984706 2.8,61.5957647 C3.11,61.3028235 3.54,61.1172941 4.01,61.1172941 L14.5,61.0294118 Z" id="Shape"></path>
                </g>
                <path d="M27.2330986,49 L31.7842074,49.9734513 C30.4760975,65.7573283 30.4760975,75.9785673 31.7842074,80.6371681 C37.2718612,100.180471 51,104 51,104 C51,104 36.3186384,103.342993 27.7387774,83.5575221 C25.6034131,78.6332944 25.4348535,67.1141204 27.2330986,49 Z" id="Path-3" fill="#FFD7AD"></path>
                <text id="M" font-family="SinhalaMN-Bold, Sinhala MN" font-size="16" font-weight="bold" fill="#000000">
                    <tspan x="49" y="137">M</tspan>
                </text>
            </g>
            <g id="Deutsche_Bank-Logo" transform="translate(73.000000, 92.000000)" fill="#1C62B7" fill-rule="nonzero">
                <path d="M0,0 L47,0 L47,47 L0,47 L0,0 Z M28.5479268,11 L10,36 L18.3821239,36 L37,11 L28.5479268,11 Z M6,41 L40,41 L40,7 L6,7 L6,41 Z" id="path2701"></path>
            </g>
        </g>
    </g>
</svg>